<svg width="50" height="50" viewBox="0 0 50 50" fill="none" xmlns="http://www.w3.org/2000/svg">
<g clip-path="url(#clip0)">
<path d="M49.4276 46.6642L35.321 32.5575C41.7481 24.7377 41.3108 13.1294 34.0074 5.8261C26.238 -1.94334 13.5963 -1.94334 5.82683 5.8261C-1.9426 13.5955 -1.9426 26.2372 5.82683 34.0067C13.1282 41.308 24.735 41.7501 32.5583 35.3202L46.6649 49.4269C47.4278 50.1898 48.6646 50.1898 49.4275 49.4269C50.1905 48.6639 50.1905 47.4271 49.4276 46.6642ZM31.2448 31.244C24.9987 37.4901 14.8356 37.49 8.58953 31.244C2.34343 24.9979 2.34343 14.8348 8.58953 8.5887C14.8354 2.3429 24.9985 2.34241 31.2448 8.5887C37.4909 14.8348 37.4909 24.9979 31.2448 31.244Z" fill="white"/>
<path d="M29.4821 17.9631H21.8708V10.3518C21.8708 9.27291 20.9962 8.3983 19.9173 8.3983C18.8384 8.3983 17.9638 9.27291 17.9638 10.3518V17.9631H10.3524C9.27353 17.9631 8.39892 18.8378 8.39892 19.9167C8.39892 20.9956 9.27353 21.8702 10.3524 21.8702H17.9638V29.4815C17.9638 30.5604 18.8384 31.435 19.9173 31.435C20.9962 31.435 21.8708 30.5604 21.8708 29.4815V21.8702H29.4821C30.561 21.8702 31.4356 20.9956 31.4356 19.9167C31.4356 18.8378 30.561 17.9631 29.4821 17.9631Z" fill="white"/>
</g>
<defs>
<clipPath id="clip0">
<rect width="50" height="50" fill="white"/>
</clipPath>
</defs>
</svg>
